<?xml version="1.0" encoding="utf-8"?>
<!-- Generator: Adobe Illustrator 25.2.0, SVG Export Plug-In . SVG Version: 6.00 Build 0)  -->
<svg version="1.1" id="Capa_1" xmlns="http://www.w3.org/2000/svg" xmlns:xlink="http://www.w3.org/1999/xlink" x="0px" y="0px"
	 viewBox="0 0 432.7 88.1" style="enable-background:new 0 0 432.7 88.1;" xml:space="preserve">
<style type="text/css">
	.st0{fill:#FFFFFF;}
	.st1{fill:#00E6FF;}
</style>
<g>
	<path class="st0" d="M124.2,62.5c-4.8,0-8.7,3.9-8.7,8.7c0,4.8,3.9,8.7,8.7,8.7h12.3c4.8,0,8.7-3.9,8.7-8.7c0-4.8-3.9-8.7-8.7-8.7
		H124.2z"/>
	<path class="st0" d="M101.2,9.2c-4.8,0-8.7,3.9-8.7,8.7v53.2c0,4.8,3.9,8.7,8.7,8.7s8.7-3.9,8.7-8.7V17.8
		C109.9,13,106,9.2,101.2,9.2"/>
	<path class="st0" d="M163.9,39.7c4.8,0,8.7-3.9,8.7-8.7V18.7c0-4.8-3.9-8.7-8.7-8.7s-8.7,3.9-8.7,8.7V31
		C155.2,35.8,159.1,39.7,163.9,39.7"/>
	<path class="st0" d="M223.6,13.4c-9.1-7.6-19.5-2.9-22.6,0.8l-43.1,52c-3.1,3.7-3.4,9.2,0.2,12.2c3.6,3,9.7,2.4,12.8-1.3l15.9-19.2
		l14.8,17.3c3.5,4.1,12.8,8,22.1,0.2l-25.6-31L223.6,13.4z"/>
	<path class="st0" d="M23.4,45.4c0-11.3,9.1-20.4,20.4-20.4s20.4,9.1,20.4,20.4s-9.1,20.4-20.4,20.4C32.5,65.8,23.4,56.7,23.4,45.4
		 M73.7,63.6c3.3-5.4,5.2-11.7,5.2-18.5c0-19.7-16-35.7-35.7-35.7S7.5,25.4,7.5,45.1s16,35.7,35.7,35.7c6.8,0,13.1-1.9,18.5-5.2
		l2.7,2.7c3.3,3.3,8.7,3.3,12,0s3.3-8.7,0-12L73.7,63.6z"/>
</g>
<g>
	<path class="st0" d="M245.8,31.5c1.1,0,3.5,0.5,3.5,2.1v0.9H248v-0.6c0-0.8-1.4-1.2-2.3-1.2c-2.1,0-3.9,1.6-3.9,4
		c0,2.5,1.8,4,3.9,4c2,0,3.2-1.4,3.2-1.4l0.6,1c0,0-1.3,1.6-3.9,1.6c-3,0-5.2-2.1-5.2-5.2C240.6,33.6,242.9,31.5,245.8,31.5z"/>
	<path class="st0" d="M252,33.3c0-0.3-0.2-0.4-0.4-0.4h-0.9v-1.2h1.4c0.8,0,1.2,0.3,1.2,1.1v0.7c0,0.4,0,0.8,0,0.8l0,0
		c0.5-1.5,1.6-2.7,3.2-2.7c0.3,0,0.5,0.1,0.5,0.1V33c0,0-0.2,0-0.5,0c-1.4,0-2.5,1.1-2.9,2.6c-0.2,0.6-0.3,1.3-0.3,1.9v4.2H252
		L252,33.3L252,33.3z"/>
</g>
<g>
	<path class="st0" d="M262.7,31.5c2.8,0,4.2,2.1,4.2,4.6c0,0.2,0,0.7,0,0.7h-7.7c0,2.5,1.8,4,3.9,4c1.8,0,3-1.2,3-1.2l0.7,1
		c0,0-1.4,1.4-3.7,1.4c-3,0-5.2-2.1-5.2-5.2C257.8,33.4,260.1,31.5,262.7,31.5z M265.5,35.7c-0.1-2.1-1.3-3.1-2.8-3.1
		c-1.6,0-3.1,1.1-3.4,3.1H265.5z"/>
	<path class="st0" d="M274.8,35.5h0.6v-0.1c0-2.1-0.8-2.8-2.6-2.8c-0.5,0-1.9,0.1-1.9,0.9v0.6h-1.3v-1c0-1.4,2.4-1.7,3.3-1.7
		c3.2,0,3.9,1.7,3.9,3.8V40c0,0.3,0.2,0.4,0.4,0.4h0.8v1.2h-1.4c-0.9,0-1.2-0.4-1.2-1.2c0-0.4,0-0.7,0-0.7l0,0c0,0-0.8,2.2-3.3,2.2
		c-1.7,0-3.4-1-3.4-3C268.7,35.6,273.1,35.5,274.8,35.5z M272.3,40.8c1.9,0,3.1-2,3.1-3.7v-0.5h-0.6c-1.6,0-4.7,0-4.7,2.3
		C270.1,39.8,270.8,40.8,272.3,40.8z"/>
	<path class="st0" d="M280.2,32.8h-1.3v-1.1h1.3v-2.8h1.3v2.8h2.5v1.1h-2.5v5.1c0,2.3,1.5,2.6,2.2,2.6c0.3,0,0.5,0,0.5,0v1.2
		c0,0-0.2,0-0.6,0c-1.1,0-3.5-0.4-3.5-3.7v-5.2H280.2z"/>
	<path class="st0" d="M286.8,33.3c0-0.3-0.2-0.4-0.4-0.4h-0.8v-1.2h1.4c0.9,0,1.2,0.4,1.2,1.2v7.2c0,0.3,0.2,0.4,0.4,0.4h0.8v1.2
		H288c-0.9,0-1.2-0.4-1.2-1.2V33.3z M286.8,27.7h1.3v1.7h-1.3V27.7z"/>
	<path class="st0" d="M291.1,33.3c-0.1-0.4-0.3-0.5-0.7-0.5h-0.2v-1.2h0.5c1,0,1.2,0.2,1.6,1.1l2.4,6.2c0.2,0.5,0.3,1.2,0.3,1.2l0,0
		c0,0,0.2-0.7,0.3-1.2l2.4-6.2c0.3-0.9,0.6-1.1,1.6-1.1h0.5v1.2h-0.2c-0.4,0-0.6,0.1-0.7,0.5l-3.3,8.3h-1.5L291.1,33.3z"/>
	<path class="st0" d="M302.1,33.3c0-0.3-0.2-0.4-0.4-0.4h-0.8v-1.2h1.4c0.9,0,1.2,0.4,1.2,1.2v7.2c0,0.3,0.2,0.4,0.4,0.4h0.8v1.2
		h-1.4c-0.9,0-1.2-0.4-1.2-1.2V33.3z M302,27.7h1.3v1.7H302V27.7z"/>
	<path class="st0" d="M307.1,32.8h-1.3v-1.1h1.3v-2.8h1.3v2.8h2.5v1.1h-2.5v5.1c0,2.3,1.5,2.6,2.2,2.6c0.3,0,0.5,0,0.5,0v1.2
		c0,0-0.2,0-0.6,0c-1.1,0-3.5-0.4-3.5-3.7v-5.2H307.1z"/>
	<path class="st0" d="M314.1,44.6c0.9,0,1.5-0.7,1.8-1.6l0.6-1.4l-3.5-8.3c-0.2-0.4-0.3-0.5-0.7-0.5h-0.2v-1.2h0.6
		c0.9,0,1.2,0.2,1.5,1.1l2.6,6.2c0.2,0.5,0.4,1.1,0.4,1.1l0,0c0,0,0.1-0.6,0.3-1.1l2.5-6.2c0.3-0.9,0.6-1.1,1.5-1.1h0.6v1.2h-0.2
		c-0.4,0-0.6,0.1-0.7,0.5l-4.3,10.4c-0.5,1.3-1.5,2.1-2.9,2.1s-2.2-1-2.2-1l0.6-1C312.7,43.9,313.3,44.6,314.1,44.6z"/>
	<path class="st0" d="M331.4,34.2L331.4,34.2c0,0-1.9-0.7-1.9-3.1c0-2.1,1.6-3.5,4.1-3.5c0.8,0,1.6,0.2,1.6,0.2l-0.4,1.1
		c0,0-0.7-0.1-1.2-0.1c-1.6,0-2.8,1-2.8,2.4c0,0.9,0.4,2.5,3,2.5h2.9v-1.9h1.4v1.9h1.8v1.2h-1.8v2c0,3.3-1.8,5-4.6,5
		s-4.7-1.8-4.7-4.1C328.8,36.2,329.7,34.6,331.4,34.2z M333.5,40.6c1.9,0,3.2-1.1,3.2-3.8v-2h-2.9c-2.4,0-3.6,1.1-3.6,2.9
		C330.2,39.3,331.5,40.6,333.5,40.6z"/>
	<path class="st0" d="M347.4,32.8h-1.2v-1.1h1.2v-0.4c0-3.3,2.3-3.7,3.4-3.7c0.4,0,0.6,0,0.6,0v1.2c0,0-0.2,0-0.5,0
		c-0.8,0-2.2,0.3-2.2,2.5v0.4h2.5v1.1h-2.5v8.8h-1.3V32.8z"/>
	<path class="st0" d="M353.4,33.3c0-0.3-0.2-0.4-0.4-0.4h-0.8v-1.2h1.4c0.9,0,1.2,0.4,1.2,1.2v4.8c0,1.6,0.3,3,2.2,3
		c2.3,0,3.7-2,3.7-4.2v-4.8h1.3v8.4c0,0.3,0.2,0.4,0.4,0.4h0.8v1.2h-1.4c-0.8,0-1.2-0.4-1.2-1.1v-0.5c0-0.4,0-0.7,0-0.7l0,0
		c-0.4,1-1.7,2.5-3.9,2.5c-2.4,0-3.3-1.3-3.3-3.9L353.4,33.3L353.4,33.3z"/>
	<path class="st0" d="M365.4,33.3c0-0.3-0.2-0.4-0.4-0.4h-0.8v-1.2h1.4c0.8,0,1.2,0.4,1.2,1.1v0.5c0,0.4,0,0.7,0,0.7l0,0
		c0.4-0.9,1.6-2.5,4-2.5c2.5,0,3.3,1.4,3.3,3.9v4.7c0,0.3,0.2,0.4,0.4,0.4h0.8v1.2h-1.4c-0.9,0-1.2-0.4-1.2-1.2v-4.8
		c0-1.6-0.2-3-2.2-3c-1.7,0-3.2,1.2-3.6,2.8c-0.1,0.4-0.2,0.9-0.2,1.3v4.8h-1.3L365.4,33.3L365.4,33.3z"/>
	<path class="st0" d="M383,32.8h-1.3v-1.1h1.3v-2.8h1.3v2.8h2.5v1.1h-2.5v5.1c0,2.3,1.5,2.6,2.2,2.6c0.3,0,0.5,0,0.5,0v1.2
		c0,0-0.2,0-0.6,0c-1.2,0-3.5-0.4-3.5-3.7v-5.2H383z"/>
	<path class="st0" d="M393.5,31.5c2.8,0,4.2,2.1,4.2,4.6c0,0.2,0,0.7,0,0.7H390c0,2.5,1.8,4,3.9,4c1.8,0,3-1.2,3-1.2l0.7,1
		c0,0-1.4,1.4-3.7,1.4c-3,0-5.2-2.1-5.2-5.2C388.5,33.4,390.8,31.5,393.5,31.5z M396.3,35.7c-0.1-2.1-1.3-3.1-2.8-3.1
		c-1.6,0-3.1,1.1-3.4,3.1H396.3z"/>
	<path class="st0" d="M404.7,31.5c1.1,0,3.5,0.5,3.5,2.1v0.9h-1.3v-0.6c0-0.8-1.4-1.2-2.3-1.2c-2.1,0-3.9,1.6-3.9,4
		c0,2.5,1.8,4,3.9,4c2,0,3.2-1.4,3.2-1.4l0.6,1c0,0-1.3,1.6-3.9,1.6c-3,0-5.2-2.1-5.2-5.2C399.4,33.6,401.7,31.5,404.7,31.5z"/>
	<path class="st0" d="M410.7,29.3c0-0.3-0.2-0.4-0.4-0.4h-0.8v-1.2h1.4c0.9,0,1.2,0.4,1.2,1.2v4.2c0,0.5,0,0.8,0,0.8l0,0
		c0.4-1,1.7-2.5,3.9-2.5c2.5,0,3.3,1.4,3.3,3.9V40c0,0.3,0.2,0.4,0.4,0.4h0.8v1.2h-1.4c-0.9,0-1.2-0.4-1.2-1.2v-4.8
		c0-1.6-0.2-3-2.2-3c-1.7,0-3.2,1.2-3.6,2.8c-0.1,0.4-0.2,0.9-0.2,1.3v4.8h-1.2V29.3z"/>
</g>
<g>
	<path class="st0" d="M258.5,72.7c-1-1-2.6-1-3.6,0s-1,2.6,0,3.6l2.6,2.6c1,1,2.6,1,3.6,0s1-2.6,0-3.6L258.5,72.7z"/>
	<path class="st0" d="M261.5,68.6c0-1.9-0.5-3.8-1.5-5.4c-1-1.7-2.3-3-4-4s-3.5-1.5-5.4-1.5s-3.8,0.5-5.4,1.5c-1.7,1-3,2.3-4,4
		c-1,1.6-1.5,3.5-1.5,5.4c0,1.5,0.3,2.9,0.9,4.3c0.6,1.3,1.4,2.5,2.4,3.5s2.2,1.8,3.6,2.3l0.1,0.1c7.1,2.1,10.8-1.9,11-2l0,0
		c1.1-1,2-2.2,2.7-3.6C261.2,71.6,261.5,70.1,261.5,68.6 M255.6,68.3c0,0.9-0.2,1.7-0.7,2.5s-1.1,1.4-1.8,1.8
		c-0.8,0.5-1.6,0.7-2.5,0.7s-1.8-0.2-2.5-0.7c-0.8-0.4-1.4-1.1-1.8-1.8s-0.7-1.6-0.7-2.5s0.2-1.7,0.7-2.5c0.4-0.8,1-1.4,1.8-1.8
		s1.6-0.7,2.5-0.7s1.7,0.2,2.5,0.7s1.4,1.1,1.8,1.8C255.3,66.6,255.6,67.4,255.6,68.3"/>
	<path class="st0" d="M267.6,74.2c0.7,1.5,1.8,2.7,3.3,3.6s3.4,1.4,5.7,1.4c2.5,0,4.5-0.5,5.9-1.4s2.4-2.1,3-3.5s0.8-3,0.8-4.6v-1.1
		c0-0.7,0-2.5,0-5.4v-4.6c0-0.2,0-0.2-0.1-0.2c-0.1-0.1-0.3-0.1-0.5-0.1h-4.2c-0.2,0-0.4,0.1-0.5,0.2s-0.1,0.2-0.1,0.2l-0.1,10.4
		c0,4-2.3,4.8-4.3,4.8c-1.4,0-2.6-0.5-3.4-1.4s-1.3-2.1-1.3-3.6l-0.1-10.2c0-0.1,0-0.1-0.1-0.2s-0.3-0.1-0.6-0.1h-4.1
		c-0.4,0-0.4,0.1-0.4,0.3v10.9C266.6,71,266.9,72.7,267.6,74.2"/>
	<path class="st0" d="M307.8,78.8c0.1,0,0.3,0,0.5-0.2c0.1-0.2,0.2-0.3,0.2-0.5v-2.7c0-0.3-0.1-0.5-0.2-0.6s-0.3-0.2-0.5-0.2h-9.9
		v-4.1h9.5c0.1,0,0.2,0,0.4-0.2c0.1-0.2,0.2-0.3,0.2-0.5v-2.7c0-0.2-0.1-0.4-0.2-0.5c-0.2-0.2-0.3-0.2-0.4-0.2h-9.5v-3.8h9.9
		c0.1,0,0.3,0,0.4-0.2c0.2-0.2,0.2-0.4,0.2-0.5v-2.7c0-0.2-0.1-0.4-0.2-0.5s-0.3-0.2-0.5-0.2h-14.8c-0.2,0-0.3,0.1-0.5,0.2
		c-0.1,0.1-0.2,0.3-0.2,0.5v19c0,0.3,0.1,0.5,0.2,0.6c0.2,0.2,0.3,0.2,0.5,0.2h14.9V78.8z"/>
	<path class="st0" d="M423.5,78.8c0.6-0.1,0.6-0.4,0.6-0.7c0-0.2,0-0.5-0.1-0.7c-0.1-0.3-0.2-0.5-0.2-0.7l-7-17.6
		c-0.1-0.3-0.3-0.5-0.5-0.7s-0.6-0.3-1-0.3h-4.5c-0.4,0-0.7,0.1-0.9,0.3c-0.3,0.2-0.5,0.4-0.6,0.7l-7,17.7c0,0.1-0.1,0.3-0.2,0.5
		c-0.1,0.3-0.1,0.6-0.1,0.9s0,0.5,0.6,0.6h4.3c0.3,0,0.6-0.1,0.8-0.2c0.2-0.1,0.2-0.2,0.3-0.3l1.1-3.6h8l1.1,3.6
		c0,0.1,0.1,0.2,0.3,0.3c0.2,0.1,0.5,0.2,0.8,0.2L423.5,78.8L423.5,78.8z M413.3,70.1h-2.9l2.4-7.4l2.5,7.4H413.3z"/>
	<path class="st1" d="M329.8,78.6c0.1-0.1,0.2-0.3,0.2-0.4v-4c0-0.2-0.1-0.3-0.2-0.5c-0.2-0.1-0.4-0.2-0.6-0.2h-9.3V58.8
		c0-0.2-0.1-0.4-0.2-0.6c-0.1-0.1-0.3-0.2-0.5-0.2H315c-0.2,0-0.3,0.1-0.5,0.2c-0.1,0.2-0.2,0.3-0.2,0.6V78c0,0.2,0.1,0.4,0.2,0.5
		s0.3,0.2,0.5,0.2h0.8h13.4C329.5,78.8,329.6,78.7,329.8,78.6"/>
	<path class="st1" d="M340.9,78.8c0.2,0,0.4-0.1,0.5-0.2s0.2-0.2,0.2-0.6V58.8c0-0.2-0.1-0.4-0.2-0.6s-0.3-0.2-0.5-0.2h-4.3
		c-0.3,0-0.4,0.1-0.5,0.2c-0.1,0.2-0.2,0.4-0.2,0.6V78c0,0.3,0.1,0.5,0.2,0.6s0.2,0.2,0.5,0.2H340.9z"/>
	<path class="st1" d="M370.5,78.8c0.2,0,0.4-0.1,0.7-0.3c0.2-0.2,0.3-0.4,0.3-0.7V59.1c0-0.3-0.1-0.5-0.3-0.7
		c-0.2-0.2-0.4-0.3-0.7-0.3h-4c-0.1,0-0.2,0-0.4,0.2c-0.1,0.1-0.2,0.3-0.2,0.4v9.4c0,1.1-0.6,1.1-0.8,1.1c-0.2,0-0.4-0.1-0.7-0.3
		l-0.1-0.1c-1.2-1.3-2.9-3-5.1-5.3l-4.7-4.9c-0.4-0.4-0.5-0.5-0.6-0.5c0,0-0.2-0.1-0.6-0.1h-3.9c-0.1,0-0.4,0-0.6,0.3
		c-0.2,0.2-0.3,0.5-0.3,0.8v18.5c0,0.3,0.1,0.5,0.3,0.7c0.2,0.2,0.3,0.3,0.6,0.3h4.2c0.2,0,0.3-0.1,0.4-0.2s0.2-0.3,0.2-0.4v-9.4
		c0-0.3,0-0.4,0-0.6c0.1-0.4,0.4-0.6,0.8-0.6c0.3,0,0.5,0.2,1.1,0.7c3.3,3.5,5.8,6.1,7.5,7.9c2,2.1,2.5,2.6,2.6,2.7
		c0,0,0.2,0.1,0.3,0.1l0,0c0.1,0,0.2,0,0.7,0H370.5z"/>
	<path class="st1" d="M383.1,58.6c-0.1-0.1-0.2-0.2-0.4-0.2h-4.5c-0.2,0-0.4,0.1-0.4,0.2c-0.1,0.1-0.2,0.2-0.2,0.4v19.2
		c0,0.3,0.1,0.4,0.1,0.4c0.1,0.1,0.2,0.1,0.4,0.1h4.5c0.1,0,0.2,0,0.3-0.1c0.1,0,0.1-0.1,0.1-0.1l0.1-0.1l5-6.7l4.7,6.8
		c0.1,0.1,0.2,0.1,0.3,0.1h5.6c0,0,0,0,0.1-0.1s0.1-0.2,0.1-0.4c0-0.1,0-0.2-0.1-0.3L391.6,67l5.6-7.6c0.2-0.2,0.3-0.4,0.3-0.6
		c0-0.1,0-0.1,0-0.1l0,0c0,0,0,0-0.1,0h-4.8c-1-0.1-1.3,0.3-1.4,0.4l-8.1,10.3V59.2C383.2,58.9,383.2,58.8,383.1,58.6"/>
</g>
</svg>
